<svg xmlns="http://www.w3.org/2000/svg" viewBox="0 0 1000 600"><path d="M0 0h1000v600H0z"/><g transform="translate(0 79.59) scale(.50511)"><circle cx="414.137" cy="436.359" r="166.667" fill="#fceb00"/><path d="M373.542 511.359q-17.667 0-27-10.667-9.334-10.666-9.334-30.857V399.86q0-18.905 9.238-28.69 9.262-9.81 27.096-9.81 17.833 0 27.071 9.81 9.262 9.785 9.262 28.69v69.976q0 20.19-9.333 30.857-9.334 10.667-27 10.667Zm.238-27.119q6.714 0 6.714-12.976v-71.905q0-10.88-6.548-10.88-7.357 0-7.357 11.142v71.81q0 6.88 1.667 9.833 1.69 2.976 5.524 2.976Zm82.952 27.119q-20.167 0-29.071-10.048-8.929-10.047-8.929-31.976v-14.38h29.143v18.404q0 5.12 1.548 8 1.547 2.881 5.38 2.881 4.024 0 5.572-2.333 1.548-2.358 1.548-7.715 0-6.762-1.334-11.333-1.333-4.571-4.643-8.714-3.31-4.143-9.166-9.667l-13.238-12.548q-14.81-13.976-14.81-31.976 0-18.833 8.762-28.714 8.738-9.881 25.31-9.881 20.261 0 28.761 10.81 8.5 10.785 8.5 32.81H460.09v-10.144q0-3-1.714-4.666-1.714-1.69-4.643-1.69-3.524 0-5.143 1.975-1.643 1.976-1.643 5.072 0 3.095 1.667 6.69 1.69 3.595 6.619 8.286l17 16.31q5.095 4.857 9.357 10.261 4.286 5.405 6.881 12.548 2.595 7.167 2.595 17.452 0 20.762-7.666 32.524-7.667 11.762-26.667 11.762Z"/><path fill="#fceb00" d="M698.296 511.359q-16.61 0-25.384-10.028-8.775-10.029-8.775-29.01v-65.79q0-17.773 8.685-26.973 8.708-9.223 25.474-9.223t25.451 9.223q8.708 9.2 8.708 26.973v65.79q0 18.981-8.775 29.01-8.775 10.028-25.384 10.028Zm.224-25.496q6.312 0 6.312-12.2v-67.602q0-10.23-6.156-10.23-6.916 0-6.916 10.477v67.512q0 6.469 1.566 9.245 1.59 2.798 5.194 2.798Zm73.265 24.242h-28.63V371.59h28.63v138.516Zm40.292 0h-28.943V371.59h28.943v32.189q2.284-6.603 7.007-9.782 4.723-3.201 11.013-3.201 12.29 0 17.886 7.723 5.573 7.7 5.573 20.683v90.904h-28.495v-89.09q0-3.85-1.612-6.29t-5.06-2.44q-2.91 0-4.61 2.529-1.702 2.507-1.702 5.976v89.315Zm73.982 1.254q-9.827 0-14.998-4.566-5.148-4.567-7.029-12.514-1.902-7.946-1.902-18.02 0-10.766 2.126-17.66 2.127-6.895 7.275-11.283 5.171-4.41 14.215-7.476l17.46-6v-12.11q0-9.513-6.201-9.513-5.663 0-5.663 7.7v7.074h-27.4q-.066-.627-.066-1.612v-2.238q0-17.617 8.304-24.982 8.283-7.364 26.325-7.364 9.424 0 16.9 3.358 7.477 3.335 11.842 9.871 4.387 6.537 4.387 16.14v89.941H903.61v-14.012q-2.037 7.409-6.76 11.326-4.724 3.94-10.79 3.94Zm11.103-21.87q3.447 0 4.723-2.91 1.253-2.91 1.253-6.29v-32.906q-5.82 2.373-9.043 5.932-3.223 3.582-3.223 10.521v15.177q0 10.476 6.29 10.476Zm116.467 21.87q-18.96 0-27.354-9.446-8.372-9.447-8.372-30.063v-13.52h27.377v17.303q0 4.813 1.455 7.521 1.455 2.709 5.081 2.709 3.783 0 5.238-2.194 1.455-2.216 1.455-7.253 0-6.357-1.253-10.655-1.276-4.298-4.388-8.192-3.089-3.895-8.595-9.089l-12.446-11.796q-13.924-13.14-13.924-30.063 0-17.706 8.216-26.996 8.237-9.29 23.817-9.29 19.027 0 27.018 10.163 7.992 10.14 7.992 30.846h-28.16v-9.536q0-2.82-1.634-4.387-1.612-1.59-4.365-1.59-3.291 0-4.836 1.858-1.522 1.858-1.522 4.768 0 2.91 1.567 6.29t6.223 7.79l15.96 15.334q4.813 4.566 8.82 9.648 4.007 5.081 6.447 11.796 2.44 6.738 2.44 16.408 0 19.52-7.186 30.578-7.208 11.058-25.07 11.058Zm69.64-1.254h-28.63V371.59h28.63v138.516Zm39.352-125.287h-28.183V361.36h28.183v23.46Zm0 125.287h-28.183V392.071h28.183v118.034Zm33.912 1.254q-9.446 0-14.438-3.94-4.991-3.917-6.805-10.968-1.813-7.051-1.813-16.475V392.07h28.34v84.592q0 7.073 1.096 9.871 1.097 2.798 5.193 2.798 4.41 0 5.552-3.94 1.141-3.939 1.141-10.14v-83.181h28.093v118.034h-28.182v-12.602q-2.664 6.782-6.402 10.32-3.738 3.536-11.775 3.536Zm90.032 0q-34.943 0-34.943-35.413v-9.356h28.34v13.856q0 4.007 1.566 6.29 1.567 2.283 5.037 2.283 6.133 0 6.133-9.222 0-7.7-3.223-11.529-3.224-3.805-7.857-7.342l-15.043-11.573q-7.073-5.506-10.767-11.64-3.716-6.156-3.716-17.08 0-10.162 4.858-16.765 4.835-6.604 12.826-9.85 7.97-3.223 17.259-3.223 34.316 0 34.316 34.249v2.193h-29.123v-4.477q0-3.559-1.209-6.85-1.23-3.312-4.768-3.312-5.976 0-5.976 6.29 0 6.38 5.036 10.006l17.46 12.737q8.193 5.91 13.745 14.012 5.551 8.104 5.551 21.557 0 16.699-9.491 25.429-9.491 8.73-26.011 8.73Zm65.632 0q-9.827 0-14.998-4.566-5.148-4.567-7.029-12.514-1.902-7.946-1.902-18.02 0-10.766 2.126-17.66 2.127-6.895 7.298-11.283 5.148-4.41 14.191-7.476l17.483-6v-12.11q0-9.513-6.223-9.513-5.663 0-5.663 7.7v7.074h-27.4q-.066-.627-.066-1.612v-2.238q0-17.617 8.304-24.982 8.305-7.364 26.325-7.364 9.446 0 16.923 3.358 7.454 3.335 11.841 9.871 4.365 6.537 4.365 16.14v89.941h-28.026v-14.012q-2.037 7.409-6.76 11.326-4.723 3.94-10.79 3.94Zm11.103-21.87q3.47 0 4.723-2.91 1.253-2.91 1.253-6.29v-32.906q-5.82 2.373-9.043 5.932-3.223 3.582-3.223 10.521v15.177q0 10.476 6.29 10.476Zm73.981 20.616h-28.652V392.071h28.652v13.14q2.037-6.85 7.23-10.7 5.194-3.873 13.073-3.873v23.527q-3.47 0-8.282.76-4.79.74-8.417 2.038-3.604 1.298-3.604 2.887v90.255Zm60.282 1.254q-12.602 0-20.079-4.723-7.476-4.723-10.7-13.61-3.223-8.887-3.223-21.4v-47.455q0-16.453 9.446-24.915 9.447-8.461 25.966-8.461 34.003 0 34.003 33.376v8.573q0 15.58-.314 20.93h-40.941v22.832q0 3.134.403 6.178.403 3.022 1.768 4.992 1.388 1.97 4.455 1.97 4.41 0 5.506-3.828 1.097-3.805 1.097-9.939V464.53h28.026v6.693q0 13.23-3.268 22.161-3.268 8.932-11.036 13.453-7.745 4.522-21.109 4.522Zm-5.999-87.591v15.915h13.386v-15.915q0-6.358-1.567-9.156-1.59-2.798-4.723-2.798-3.38 0-5.238 2.686-1.858 2.664-1.858 9.268Zm79.802 86.337h-28.16V392.071h28.16v15.02q1.589-6.76 5.864-11.528 4.298-4.768 11.931-4.768 12.267 0 17.819 7.566 5.551 7.544 5.551 20.683v91.061h-27.78v-88.15q0-3.448-1.41-6.403-1.432-2.954-4.88-2.954-3.245 0-4.767 2.238-1.545 2.261-1.925 5.596-.403 3.336-.403 6.649v83.024Zm80.047 0h-27.869V371.59h27.87v61.155l13.52-40.673h29.212l-17.706 51.306 22.496 66.728h-29.973l-17.55-55.648v55.648Zm85.532 1.254q-35.256 0-35.256-36.599v-47.366q0-16.677 9.357-26.638 9.38-9.961 25.9-9.961 16.609 0 25.966 9.961 9.379 9.961 9.379 26.638v47.366q0 36.599-35.346 36.599Zm0-21.713q3.537 0 5.082-2.552 1.522-2.574 1.522-6.492v-57.685q0-10.32-6.604-10.32-6.603 0-6.603 10.32v57.685q0 3.918 1.522 6.492 1.545 2.552 5.081 2.552Z"/></g></svg>